<?xml version="1.0" encoding="utf-8"?>
<!-- Generator: Adobe Illustrator 26.0.1, SVG Export Plug-In . SVG Version: 6.00 Build 0)  -->
<svg version="1.1" id="Layer_1" xmlns="http://www.w3.org/2000/svg" xmlns:xlink="http://www.w3.org/1999/xlink" x="0px" y="0px"
	 viewBox="0 0 142 151" style="enable-background:new 0 0 142 151;" xml:space="preserve">
<style type="text/css">
	.st0{fill:#F2F0E7;enable-background:new    ;}
	.st1{enable-background:new    ;}
	.st2{fill:#5D6A23;}
	.st3{fill:#5D6A23;stroke:#F2F0E7;stroke-width:0.2933;}
</style>
<image style="overflow:visible;enable-background:new    ;" width="142" height="151" xlink:href="C753C5A8.png"  transform="matrix(1 0 0 1 171.9827 -88.8122)">
</image>
<polygon class="st0" points="-366.8,-107.8 -516.8,-152.4 -666.8,-107.8 -666.8,-407.8 -366.8,-407.8 "/>
<g class="st1">
	<path class="st2" d="M-539.9-261.4l-46.3,0.3v9.4c0,5.2-4.2,9.4-9.4,9.4c-5.2,0-9.4-4.2-9.4-9.4v-9.4l-46.6,0
		c-8.4,0-12.8-10.1-7.2-16.5l20.2-23.3h-4.4c-7.5,0-11.5-8.7-6.6-14.4l17.7-20.8h-3.2c-6.2,0-9.6-6.6-5.7-10.9l39.5-43
		c3.1-3.3,8.3-3.3,11.3,0l39.6,43c4,4.3,0.6,10.9-5.7,10.9h-3.2l17.7,20.8c4.8,5.7,0.8,14.4-6.7,14.4h-4.5l20.2,23.3
		C-526.7-271.2-531.3-261.4-539.9-261.4z"/>
</g>
<g class="st1">
	<path class="st2" d="M-397.3-261.4l-46.3,0.3v9.4c0,5.2-4.2,9.4-9.4,9.4c-5.2,0-9.4-4.2-9.4-9.4v-9.4l-46.6,0
		c-8.4,0-12.8-10.1-7.2-16.5l20.2-23.3h-4.4c-7.5,0-11.5-8.7-6.6-14.4l17.7-20.8h-3.2c-6.2,0-9.6-6.6-5.7-10.9l39.5-43
		c3.1-3.3,8.3-3.3,11.3,0l39.6,43c4,4.3,0.6,10.9-5.7,10.9h-3.2l17.7,20.8c4.8,5.7,0.8,14.4-6.7,14.4h-4.5l20.2,23.3
		C-384.1-271.2-388.7-261.4-397.3-261.4z"/>
</g>
<g class="st1">
	<path class="st3" d="M-469.7-267l-46.3,0.3v9.4c0,5.2-4.2,9.4-9.4,9.4c-5.2,0-9.4-4.2-9.4-9.4v-9.4l-46.6,0
		c-8.4,0-12.8-10.1-7.2-16.5l20.2-23.3h-4.4c-7.5,0-11.5-8.7-6.6-14.4l17.7-20.8h-3.2c-6.2,0-9.6-6.6-5.7-10.9l39.5-43
		c3.1-3.3,8.3-3.3,11.3,0l39.6,43c4,4.3,0.6,10.9-5.7,10.9h-3.2l17.7,20.8c4.8,5.7,0.8,14.4-6.7,14.4h-4.5l20.2,23.3
		C-456.6-276.8-461.2-267-469.7-267z"/>
</g>
<text transform="matrix(1 0 0 1 -556.7576 -225.8709)"><tspan x="0" y="0" style="fill:#2B00FF; font-family:'AmorettaDark-Regular'; font-size:45px;">The </tspan><tspan x="-66.5" y="54" style="fill:#2B00FF; font-family:'AmorettaDark-Regular'; font-size:45px;">Blue House</tspan></text>
</svg>
